<mxfile host="app.diagrams.net" modified="2022-04-11T03:55:23.307Z" agent="5.0 (Windows NT 10.0; Win64; x64) AppleWebKit/537.36 (KHTML, like Gecko) Chrome/100.0.4896.75 Safari/537.36" etag="VWNIjzy6K-kURlbcychK" version="17.4.1" type="github">
  <diagram id="C5RBs43oDa-KdzZeNtuy" name="Page-1">
    <mxGraphModel dx="782" dy="436" grid="1" gridSize="10" guides="1" tooltips="1" connect="1" arrows="1" fold="1" page="1" pageScale="1" pageWidth="827" pageHeight="1169" math="1" shadow="0">
      <root>
        <mxCell id="WIyWlLk6GJQsqaUBKTNV-0" />
        <mxCell id="WIyWlLk6GJQsqaUBKTNV-1" parent="WIyWlLk6GJQsqaUBKTNV-0" />
        <mxCell id="VvQAMp07Zl20_Nt9v24d-4" value="" style="group" vertex="1" connectable="0" parent="WIyWlLk6GJQsqaUBKTNV-1">
          <mxGeometry x="180" y="247.5" width="103" height="30" as="geometry" />
        </mxCell>
        <mxCell id="VvQAMp07Zl20_Nt9v24d-1" value="" style="group" vertex="1" connectable="0" parent="VvQAMp07Zl20_Nt9v24d-4">
          <mxGeometry width="80" height="30" as="geometry" />
        </mxCell>
        <mxCell id="WIyWlLk6GJQsqaUBKTNV-3" value="(2,1)&amp;nbsp; &amp;nbsp; &amp;nbsp; &amp;nbsp; &amp;nbsp; &amp;nbsp; &amp;nbsp;" style="rounded=1;whiteSpace=wrap;html=1;fontSize=12;glass=0;strokeWidth=1;shadow=0;" parent="VvQAMp07Zl20_Nt9v24d-1" vertex="1">
          <mxGeometry width="80" height="30" as="geometry" />
        </mxCell>
        <mxCell id="VvQAMp07Zl20_Nt9v24d-0" value="" style="endArrow=none;html=1;rounded=0;entryX=0.5;entryY=0;entryDx=0;entryDy=0;exitX=0.5;exitY=1;exitDx=0;exitDy=0;" edge="1" parent="VvQAMp07Zl20_Nt9v24d-1" source="WIyWlLk6GJQsqaUBKTNV-3" target="WIyWlLk6GJQsqaUBKTNV-3">
          <mxGeometry width="50" height="50" relative="1" as="geometry">
            <mxPoint x="230" y="60" as="sourcePoint" />
            <mxPoint x="280" y="10" as="targetPoint" />
          </mxGeometry>
        </mxCell>
        <mxCell id="VvQAMp07Zl20_Nt9v24d-2" value="" style="endArrow=classic;html=1;rounded=0;" edge="1" parent="VvQAMp07Zl20_Nt9v24d-4">
          <mxGeometry width="50" height="50" relative="1" as="geometry">
            <mxPoint x="63" y="15" as="sourcePoint" />
            <mxPoint x="103" y="15" as="targetPoint" />
          </mxGeometry>
        </mxCell>
        <mxCell id="VvQAMp07Zl20_Nt9v24d-5" value="" style="group" vertex="1" connectable="0" parent="WIyWlLk6GJQsqaUBKTNV-1">
          <mxGeometry x="283" y="247.5" width="103" height="30" as="geometry" />
        </mxCell>
        <mxCell id="VvQAMp07Zl20_Nt9v24d-6" value="" style="group" vertex="1" connectable="0" parent="VvQAMp07Zl20_Nt9v24d-5">
          <mxGeometry width="80" height="30" as="geometry" />
        </mxCell>
        <mxCell id="VvQAMp07Zl20_Nt9v24d-7" value="(-5,3)&amp;nbsp; &amp;nbsp; &amp;nbsp; &amp;nbsp; &amp;nbsp; &amp;nbsp; &amp;nbsp;" style="rounded=1;whiteSpace=wrap;html=1;fontSize=12;glass=0;strokeWidth=1;shadow=0;" vertex="1" parent="VvQAMp07Zl20_Nt9v24d-6">
          <mxGeometry width="80" height="30" as="geometry" />
        </mxCell>
        <mxCell id="VvQAMp07Zl20_Nt9v24d-8" value="" style="endArrow=none;html=1;rounded=0;entryX=0.5;entryY=0;entryDx=0;entryDy=0;exitX=0.5;exitY=1;exitDx=0;exitDy=0;" edge="1" parent="VvQAMp07Zl20_Nt9v24d-6" source="VvQAMp07Zl20_Nt9v24d-7" target="VvQAMp07Zl20_Nt9v24d-7">
          <mxGeometry width="50" height="50" relative="1" as="geometry">
            <mxPoint x="230" y="60" as="sourcePoint" />
            <mxPoint x="280" y="10" as="targetPoint" />
          </mxGeometry>
        </mxCell>
        <mxCell id="VvQAMp07Zl20_Nt9v24d-9" value="" style="endArrow=classic;html=1;rounded=0;" edge="1" parent="VvQAMp07Zl20_Nt9v24d-5">
          <mxGeometry width="50" height="50" relative="1" as="geometry">
            <mxPoint x="63" y="15" as="sourcePoint" />
            <mxPoint x="103" y="15" as="targetPoint" />
          </mxGeometry>
        </mxCell>
        <mxCell id="VvQAMp07Zl20_Nt9v24d-12" value="" style="group" vertex="1" connectable="0" parent="WIyWlLk6GJQsqaUBKTNV-1">
          <mxGeometry x="386" y="247.5" width="103" height="30" as="geometry" />
        </mxCell>
        <mxCell id="VvQAMp07Zl20_Nt9v24d-13" value="" style="group" vertex="1" connectable="0" parent="VvQAMp07Zl20_Nt9v24d-12">
          <mxGeometry width="80" height="30" as="geometry" />
        </mxCell>
        <mxCell id="VvQAMp07Zl20_Nt9v24d-14" value="(9,8)&amp;nbsp; &amp;nbsp; &amp;nbsp; &amp;nbsp; &amp;nbsp; &amp;nbsp; &amp;nbsp;" style="rounded=1;whiteSpace=wrap;html=1;fontSize=12;glass=0;strokeWidth=1;shadow=0;" vertex="1" parent="VvQAMp07Zl20_Nt9v24d-13">
          <mxGeometry width="80" height="30" as="geometry" />
        </mxCell>
        <mxCell id="VvQAMp07Zl20_Nt9v24d-15" value="" style="endArrow=none;html=1;rounded=0;entryX=0.5;entryY=0;entryDx=0;entryDy=0;exitX=0.5;exitY=1;exitDx=0;exitDy=0;" edge="1" parent="VvQAMp07Zl20_Nt9v24d-13" source="VvQAMp07Zl20_Nt9v24d-14" target="VvQAMp07Zl20_Nt9v24d-14">
          <mxGeometry width="50" height="50" relative="1" as="geometry">
            <mxPoint x="230" y="60" as="sourcePoint" />
            <mxPoint x="280" y="10" as="targetPoint" />
          </mxGeometry>
        </mxCell>
        <mxCell id="VvQAMp07Zl20_Nt9v24d-16" value="" style="endArrow=classic;html=1;rounded=0;" edge="1" parent="VvQAMp07Zl20_Nt9v24d-12">
          <mxGeometry width="50" height="50" relative="1" as="geometry">
            <mxPoint x="63" y="15" as="sourcePoint" />
            <mxPoint x="103" y="15" as="targetPoint" />
          </mxGeometry>
        </mxCell>
        <mxCell id="VvQAMp07Zl20_Nt9v24d-17" value="$$\emptyset$$" style="rounded=0;whiteSpace=wrap;html=1;fontSize=29;opacity=0;" vertex="1" parent="WIyWlLk6GJQsqaUBKTNV-1">
          <mxGeometry x="450" y="190" width="120" height="145" as="geometry" />
        </mxCell>
      </root>
    </mxGraphModel>
  </diagram>
</mxfile>
